<?xml version="1.0" encoding="UTF-8"?><svg id="Layer_2" xmlns="http://www.w3.org/2000/svg" viewBox="0 0 1910.1 1899.57"><defs><style>.cls-1{fill:currentColor;}</style></defs><g id="Layer_1-2"><path class="cls-1" d="M270.89,1311.5c2.44,4.52,16.53,31.49,9.76,64.25-6.96,33.71-27.81,33.89-38.97,69.97-9.98,32.26-2.42,61.57,1.4,76.38,3.12,12.11,10.59,41.08,33.78,65.56,53.61,56.63,143.99,39.38,162.92,35.76,31.35-5.98,50.67-17.45,57.62-21.85,9.56-6.06,27.41-17.64,41.72-39.74,18.92-29.22,19.71-58.37,19.87-69.54.53-38.05-14.78-65.63-23.84-81.46-5.49-9.6-17.47-28.63-59.6-65.56-19.45-17.05-36.39-30.08-95.37-71.52-73.25-51.48-78.63-53.52-99.34-71.52-18.57-16.14-44.89-39.29-71.52-75.5-18.03-24.51-42.16-57.31-55.63-105.3-18.89-67.31-5.55-124.38,1.99-154.97,3.63-14.73,18.64-71.47,63.58-131.13,8.92-11.85,52.93-68.82,133.11-111.26,59.33-31.4,111.23-40.43,143.05-45.7,50.82-8.41,90.11-7.08,123.18-5.96,43.96,1.49,77.03,2.85,119.21,15.89,21.36,6.61,51.06,16.08,83.45,39.74,13.31,9.72,39.94,29.59,61.59,65.56,9.27,15.4,29.06,49.25,29.8,97.35.57,37.32-10.57,67.04-19.87,85.43-7.16,14.16-22.27,43.17-55.63,65.56-6.59,4.42-47.67,31.13-103.31,25.83-16.67-1.59-40.92-3.9-63.58-21.85-23.72-18.8-31.9-43.84-35.76-55.63-1.74-5.32-8.44-26.94-5.96-55.63,2.62-30.33,11.92-37.33,19.87-67.55,6.83-25.98,18.9-71.88-3.97-101.33-19.81-25.5-56.78-27.1-75.5-27.82-12.47-.48-40.33-1.18-69.54,15.89-7.83,4.57-41.07,25.22-53.64,67.55-10.37,34.9-.65,64.19,3.97,77.48,9.32,26.82,24.22,42.75,53.64,73.51,13.53,14.15,38.11,38.41,79.47,69.54,40.35,30.37,44.52,28.02,91.39,61.59,22.68,16.24,53.72,38.63,89.41,71.52,39.06,36.01,59.41,54.77,79.47,87.42,9.67,15.74,33.37,57.64,41.72,117.22,7.79,55.54-1.7,98.27-7.95,125.17-12.18,52.46-32.57,90.51-43.71,109.27-11.23,18.91-43.32,69.2-103.55,113.72-57.13,42.23-110.58,57.82-148.31,68.45-56.91,16.03-101.2,18.44-143.51,20.48-97.11,4.68-211.68,10.56-315.9-51.66-50.68-30.26-72.69-60.29-81.46-73.51-26.37-39.77-32.29-77.47-35.76-101.33-4.75-32.63-12.42-85.28,15.89-139.08,24.02-45.64,61.29-66.96,69.54-71.52,12.99-7.2,65.11-36.08,121.19-15.89,10.4,3.74,41.99,15.11,59.6,47.68ZM641.76,1825.5c-2.56,3.23-8.09,11.12-8.97,22.42-1.32,16.93,9.19,29.05,11.21,31.39,11.58,13.43,28.91,16.02,73.65,18.2,54.18,2.63,72.1,1.99,72.1,1.99,61.13-2.19,91.73-3.11,125.57-8.97,73.83-12.79,127.06-36.17,141.27-42.6,75.63-34.24,124.66-76.85,141.27-91.94,12.18-11.07,52.89-49.11,91.94-109.87,7.96-12.39,40.01-63.33,65.03-139.02,15.95-48.27,21.41-83.52,31.39-147.99,8.86-57.19,6.79-62.37,20.18-179.39,11.05-96.55,12.98-92.47,17.94-147.99,3.16-35.38,4.9-64.25,11.36-134.79,4.59-50.08,7.61-78.02,20.03-114.1,10.9-31.68,23.13-52.46,33.63-67.27,13.62-19.21,27.75-38.64,53.82-51.57,15.51-7.7,29.28-9.34,50.87-12.24,42.78-5.73,60.36,1.51,69.11-10.72,2.08-2.91,2.34-14.88,2.85-38.82.43-20.09.1-23.88-2.85-27.4-4.88-5.8-12.13-5.5-35.35-6.52-14.2-.63-28.38-1.76-42.57-2.58-23.03-1.33-34.54-2-46.81-4.21-12.12-2.19-35.08-6.04-53.55-18.59-26.54-18.04-35.61-46.11-44.85-74-10.94-33.02-11.94-57.98-13.45-105.39-1.54-48.24-2.6-81.27,6.73-125.57,10.57-50.22,27.35-81.03,33.63-91.94,12.35-21.42,22.89-39.21,44.85-53.82,28.39-18.88,57.06-19.94,67.27-20.18,19.51-.47,40.66-.91,58.3,13.45,20.9,17.02,28.77,48.28,22.4,72.92-9.03,34.95-40.74,33.51-64.76,70.32-32.18,49.3-14.51,112.01-11.45,122.25,14.69,49.04,54.83,96.85,112.11,111.23,74.77,18.78,148.18-32.26,181.63-82.97,25.59-38.78,29.35-79.58,31.39-103.15,1.87-21.55,4.89-61.64-13.45-107.63-14.5-36.37-35.57-59.39-47.09-71.75-6.96-7.46-29.96-31.24-67.27-51.57-28.63-15.6-52.2-21.82-80.72-29.15-21.21-5.45-55.49-14.05-100.9-15.7-17.24-.63-71.74-1.54-139.02,17.94-57.31,16.6-96.38,40.03-130.05,60.54-38.52,23.47-71.35,43.47-105.39,80.72-35.93,39.32-53.76,76.57-74,118.84-22.03,46.02-36.2,75.62-44.85,118.84-3.77,18.83-11.48,44.69-26.91,96.42-1.96,6.56-6.26,20.47-17.94,33.63-9.82,11.08-20.66,16.9-26.91,20.18-16.32,8.58-30.7,12.38-44.85,15.7-24.62,5.76-31.84,1.39-38.38,8.68-4.1,4.57-3.47,8.41-4.34,37.18-.95,31.58-1.99,36.12,2.51,41.8,5.59,7.05,14.58,9.63,29,13.24,13.65,3.42,15.95,2.59,24.78,5.95,6.24,2.38,14.03,6.2,18.1,9.55,13.15,10.85,9.12,34.84,5.95,63.67-5.9,53.64,1.35,31.6-6.66,98.85-3.5,29.39-4.3,28.65-9.76,68.53-2.09,15.28-2.78,21.48-14.47,123.43-6.66,58.05-10.49,92.01-15.7,139.02-10.35,93.41-9.47,94.45-15.7,143.51-3.67,28.88-10.01,76.08-20.18,134.54-12,68.99-18.83,93.29-22.42,105.39-8.55,28.84-17.14,57.21-35.88,91.94-23.93,44.35-49.81,71.98-58.3,80.72-10.35,10.67-23.84,24.4-44.85,38.12-14.76,9.63-27.7,15.65-47.09,24.67-21.48,9.99-34.94,14.62-38.12,15.7-13.47,4.58-25.12,7.53-33.78,9.45"/></g></svg>